# xmcd CD database file generated by OrangeCD 6.2
#
# Track frame offsets:
#	150
#	13749
#	35487
#	52197
#	69543
#	95180
#	113366
#	128756
#	146642
#	163532
#	183398
#	199928
#	221522
#	239936
#
# Disc length: 3458 seconds
#
# Revision: 0
# Processed by: cddbd v1.5.2PL0 Copyright (c) Steve Scherf et al.
# Submitted via: OrangeCD 6.2
#
DISCID=d50d800e
DTITLE=Hal Collins - Glory Train
DYEAR=1900
DGENRE=Gospel
TTITLE0=Glory Train
TTITLE1=I Can See Forever From Here
TTITLE2=The Bow
TTITLE3=Sent From Above
TTITLE4=The Master's Serenade
TTITLE5=Homeless In Heaven
TTITLE6=Send Me
TTITLE7=Are You Out There
TTITLE8=When The Hammer Falls
TTITLE9=I'm Longing To See
TTITLE10=The Old Man's Request
TTITLE11=To Meet Jesus Halfway
TTITLE12=Just Look At Me
TTITLE13=Turn To Jesus
EXTD=
EXTT0=
EXTT1=
EXTT2=
EXTT3=
EXTT4=
EXTT5=
EXTT6=
EXTT7=
EXTT8=
EXTT9=
EXTT10=
EXTT11=
EXTT12=
EXTT13=
PLAYORDER=
